<svg xmlns="http://www.w3.org/2000/svg" xmlns:xlink="http://www.w3.org/1999/xlink" width="919" height="885.978" viewBox="0 0 919 885.978">
  <defs>
    <linearGradient id="linear-gradient" x1="0.49" y1="0.069" x2="0.5" y2="1.201" gradientUnits="objectBoundingBox">
      <stop offset="0" stop-color="#791ffd"/>
      <stop offset="1" stop-color="#c651cd"/>
    </linearGradient>
  </defs>
  <g id="Group_2" data-name="Group 2" transform="translate(-90 -97.511)">
    <path id="Subtraction_2" data-name="Subtraction 2" d="M582,902.489V731.027C686.487,682.368,754,575.591,754,459S686.486,235.632,582,186.973V16.511c4.746,1.309,9.5,2.7,14.142,4.147,14.256,4.434,28.46,9.632,42.216,15.451,13.63,5.765,27.144,12.275,40.167,19.349,12.933,7.027,25.68,14.771,37.886,23.017A462.048,462.048,0,0,1,840.524,202.589c8.247,12.207,15.991,24.954,23.017,37.886,7.072,13.018,13.582,26.532,19.349,40.167,5.82,13.76,11.019,27.963,15.452,42.216,4.484,14.419,8.294,29.235,11.323,44.036a460.923,460.923,0,0,1,6.962,45.625,466.351,466.351,0,0,1,0,93.962,460.959,460.959,0,0,1-6.962,45.625c-3.029,14.8-6.838,29.617-11.323,44.036-4.433,14.253-9.632,28.456-15.452,42.216-5.761,13.622-12.271,27.137-19.349,40.167-7.027,12.934-14.771,25.681-23.017,37.886A462.014,462.014,0,0,1,716.411,840.524c-12.206,8.247-24.953,15.991-37.886,23.017-13.03,7.078-26.545,13.588-40.167,19.349-13.76,5.82-27.963,11.019-42.216,15.452-4.653,1.447-9.41,2.842-14.141,4.147Zm-248-.838h0c-3.723-1.053-7.471-2.166-11.139-3.307-14.253-4.433-28.456-9.632-42.216-15.452-13.635-5.767-27.149-12.277-40.167-19.349-12.932-7.025-25.678-14.769-37.886-23.017A462.049,462.049,0,0,1,78.476,716.411c-8.247-12.208-15.991-24.955-23.017-37.886C48.385,665.5,41.875,651.988,36.11,638.358,30.291,624.6,25.093,610.4,20.659,596.142c-4.482-14.41-8.292-29.226-11.323-44.036a460.715,460.715,0,0,1-6.963-45.625,466.361,466.361,0,0,1,0-93.962,460.709,460.709,0,0,1,6.963-45.625c3.031-14.811,6.84-29.626,11.323-44.036,4.434-14.256,9.632-28.46,15.451-42.216,5.766-13.633,12.276-27.147,19.349-40.167,7.025-12.93,14.769-25.677,23.017-37.886A462.083,462.083,0,0,1,202.589,78.476c12.208-8.247,24.955-15.991,37.886-23.017,13.018-7.072,26.532-13.582,40.167-19.349,13.757-5.819,27.96-11.018,42.216-15.451,3.667-1.141,7.415-2.254,11.141-3.309V188.873A296.977,296.977,0,0,0,212.781,297.322a302.772,302.772,0,0,0,0,323.356A296.975,296.975,0,0,0,334,729.127Z" transform="translate(90 81)" fill="#8739f9"/>
    <path id="Exclusion_4" data-name="Exclusion 4" d="M521,838.189V731.121a289.795,289.795,0,0,1-248-1.895V836.557h0a397.82,397.82,0,0,1-109.581-56.742A401.8,401.8,0,0,1,77.01,693.345a399.071,399.071,0,0,1,0-471.69,401.8,401.8,0,0,1,86.408-86.471A397.827,397.827,0,0,1,273,78.442V188.774a289.813,289.813,0,0,1,248-1.895V731.121C625.486,682.588,693,575.774,693,459S625.486,235.412,521,186.879V76.812a397.56,397.56,0,0,1,111.454,56.1,401.8,401.8,0,0,1,88.006,86.669,399.056,399.056,0,0,1,0,475.83,401.807,401.807,0,0,1-88.006,86.669A397.564,397.564,0,0,1,521,838.188ZM273,188.774A296.291,296.291,0,0,0,151.753,297.155a303.51,303.51,0,0,0,0,323.69A296.291,296.291,0,0,0,273,729.226Z" transform="translate(151 81)" fill="url(#linear-gradient)"/>
  </g>
</svg>
